<mxfile host="app.diagrams.net" modified="2021-12-26T20:14:42.799Z" agent="5.0 (Windows)" etag="YmDv9SYMnyLmllPcNmts" version="16.1.0" type="github">
  <diagram id="AyuG2AtyzldL2LKx-N-V" name="Page-1">
    <mxGraphModel dx="1422" dy="780" grid="1" gridSize="10" guides="1" tooltips="1" connect="1" arrows="1" fold="1" page="1" pageScale="1" pageWidth="827" pageHeight="583" math="0" shadow="0">
      <root>
        <mxCell id="0" />
        <mxCell id="1" parent="0" />
        <mxCell id="qpBcVbU79Aa1EWPwrXT2-15" style="edgeStyle=orthogonalEdgeStyle;rounded=0;orthogonalLoop=1;jettySize=auto;html=1;startArrow=none;startFill=0;endArrow=classic;endFill=1;" edge="1" parent="1" source="qpBcVbU79Aa1EWPwrXT2-1" target="qpBcVbU79Aa1EWPwrXT2-14">
          <mxGeometry relative="1" as="geometry" />
        </mxCell>
        <mxCell id="qpBcVbU79Aa1EWPwrXT2-1" value="" style="whiteSpace=wrap;html=1;aspect=fixed;" vertex="1" parent="1">
          <mxGeometry x="30" y="70" width="50" height="50" as="geometry" />
        </mxCell>
        <mxCell id="qpBcVbU79Aa1EWPwrXT2-2" value="" style="whiteSpace=wrap;html=1;aspect=fixed;" vertex="1" parent="1">
          <mxGeometry x="30" y="280" width="50" height="50" as="geometry" />
        </mxCell>
        <mxCell id="qpBcVbU79Aa1EWPwrXT2-38" style="edgeStyle=orthogonalEdgeStyle;rounded=0;sketch=0;orthogonalLoop=1;jettySize=auto;html=1;fontSize=24;startArrow=none;startFill=0;endArrow=classic;endFill=1;endSize=6;" edge="1" parent="1" source="qpBcVbU79Aa1EWPwrXT2-4">
          <mxGeometry relative="1" as="geometry">
            <mxPoint x="565" y="550" as="targetPoint" />
          </mxGeometry>
        </mxCell>
        <mxCell id="qpBcVbU79Aa1EWPwrXT2-4" value="" style="whiteSpace=wrap;html=1;aspect=fixed;" vertex="1" parent="1">
          <mxGeometry x="540" y="405" width="50" height="50" as="geometry" />
        </mxCell>
        <mxCell id="qpBcVbU79Aa1EWPwrXT2-41" style="edgeStyle=orthogonalEdgeStyle;rounded=0;sketch=0;orthogonalLoop=1;jettySize=auto;html=1;entryX=0.5;entryY=0;entryDx=0;entryDy=0;fontSize=24;startArrow=none;startFill=0;endArrow=classic;endFill=1;endSize=6;" edge="1" parent="1" source="qpBcVbU79Aa1EWPwrXT2-6" target="qpBcVbU79Aa1EWPwrXT2-27">
          <mxGeometry relative="1" as="geometry" />
        </mxCell>
        <mxCell id="qpBcVbU79Aa1EWPwrXT2-6" value="" style="verticalLabelPosition=bottom;verticalAlign=top;html=1;shape=mxgraph.flowchart.summing_function;flipH=0;flipV=1;" vertex="1" parent="1">
          <mxGeometry x="742.5" y="70" width="40" height="40" as="geometry" />
        </mxCell>
        <mxCell id="qpBcVbU79Aa1EWPwrXT2-14" value="" style="rounded=0;whiteSpace=wrap;html=1;" vertex="1" parent="1">
          <mxGeometry x="90" y="160" width="100" height="40" as="geometry" />
        </mxCell>
        <mxCell id="qpBcVbU79Aa1EWPwrXT2-16" value="&lt;font style=&quot;font-size: 24px&quot;&gt;&amp;lt;&amp;lt;&amp;lt;7&lt;/font&gt;" style="text;html=1;align=center;verticalAlign=middle;resizable=0;points=[];autosize=1;strokeColor=none;fillColor=none;" vertex="1" parent="1">
          <mxGeometry x="105" y="170" width="70" height="20" as="geometry" />
        </mxCell>
        <mxCell id="qpBcVbU79Aa1EWPwrXT2-17" value="" style="verticalLabelPosition=bottom;verticalAlign=top;html=1;shape=mxgraph.flowchart.summing_function;flipH=0;flipV=1;" vertex="1" parent="1">
          <mxGeometry x="190" y="250" width="40" height="40" as="geometry" />
        </mxCell>
        <mxCell id="qpBcVbU79Aa1EWPwrXT2-22" style="edgeStyle=orthogonalEdgeStyle;rounded=0;sketch=0;orthogonalLoop=1;jettySize=auto;html=1;entryX=0.5;entryY=1;entryDx=0;entryDy=0;entryPerimeter=0;fontSize=24;startArrow=none;startFill=0;endArrow=classic;endFill=1;endSize=6;" edge="1" parent="1" target="qpBcVbU79Aa1EWPwrXT2-6">
          <mxGeometry relative="1" as="geometry">
            <mxPoint x="763" y="10" as="sourcePoint" />
          </mxGeometry>
        </mxCell>
        <mxCell id="qpBcVbU79Aa1EWPwrXT2-23" value="&lt;font style=&quot;font-size: 24px&quot;&gt;&amp;lt;&amp;lt;&amp;lt;8&lt;/font&gt;" style="rounded=0;whiteSpace=wrap;html=1;" vertex="1" parent="1">
          <mxGeometry x="280" y="350" width="100" height="40" as="geometry" />
        </mxCell>
        <mxCell id="qpBcVbU79Aa1EWPwrXT2-24" value="&lt;font style=&quot;font-size: 24px&quot;&gt;&amp;lt;&amp;lt;&amp;lt;7&lt;/font&gt;" style="text;html=1;align=center;verticalAlign=middle;resizable=0;points=[];autosize=1;strokeColor=none;fillColor=none;" vertex="1" parent="1">
          <mxGeometry x="420" y="260" width="70" height="20" as="geometry" />
        </mxCell>
        <mxCell id="qpBcVbU79Aa1EWPwrXT2-35" style="edgeStyle=orthogonalEdgeStyle;rounded=0;sketch=0;orthogonalLoop=1;jettySize=auto;html=1;exitX=1;exitY=0.25;exitDx=0;exitDy=0;entryX=0.275;entryY=0.95;entryDx=0;entryDy=0;entryPerimeter=0;fontSize=24;startArrow=none;startFill=0;endArrow=classic;endFill=1;endSize=6;" edge="1" parent="1" source="qpBcVbU79Aa1EWPwrXT2-25" target="qpBcVbU79Aa1EWPwrXT2-26">
          <mxGeometry relative="1" as="geometry" />
        </mxCell>
        <mxCell id="qpBcVbU79Aa1EWPwrXT2-25" value="" style="rounded=0;whiteSpace=wrap;html=1;" vertex="1" parent="1">
          <mxGeometry x="390" y="430" width="100" height="40" as="geometry" />
        </mxCell>
        <mxCell id="qpBcVbU79Aa1EWPwrXT2-26" value="&lt;font style=&quot;font-size: 24px&quot;&gt;&amp;lt;&amp;lt;&amp;lt;12&lt;/font&gt;" style="text;html=1;align=center;verticalAlign=middle;resizable=0;points=[];autosize=1;strokeColor=none;fillColor=none;" vertex="1" parent="1">
          <mxGeometry x="390" y="330" width="80" height="20" as="geometry" />
        </mxCell>
        <mxCell id="qpBcVbU79Aa1EWPwrXT2-27" value="" style="rounded=0;whiteSpace=wrap;html=1;" vertex="1" parent="1">
          <mxGeometry x="720" y="150" width="85" height="40" as="geometry" />
        </mxCell>
        <mxCell id="qpBcVbU79Aa1EWPwrXT2-40" style="edgeStyle=orthogonalEdgeStyle;rounded=0;sketch=0;orthogonalLoop=1;jettySize=auto;html=1;fontSize=24;startArrow=none;startFill=0;endArrow=classic;endFill=1;endSize=6;exitX=0.5;exitY=1;exitDx=0;exitDy=0;" edge="1" parent="1" source="qpBcVbU79Aa1EWPwrXT2-27">
          <mxGeometry relative="1" as="geometry">
            <mxPoint x="763" y="540" as="targetPoint" />
          </mxGeometry>
        </mxCell>
        <mxCell id="qpBcVbU79Aa1EWPwrXT2-28" value="&lt;font style=&quot;font-size: 24px&quot;&gt;&amp;lt;&amp;lt;&amp;lt;16&lt;/font&gt;" style="text;html=1;align=center;verticalAlign=middle;resizable=0;points=[];autosize=1;strokeColor=none;fillColor=none;" vertex="1" parent="1">
          <mxGeometry x="722.5" y="160" width="80" height="20" as="geometry" />
        </mxCell>
        <mxCell id="qpBcVbU79Aa1EWPwrXT2-31" style="edgeStyle=orthogonalEdgeStyle;rounded=0;sketch=0;orthogonalLoop=1;jettySize=auto;html=1;fontSize=24;startArrow=none;startFill=0;endArrow=classic;endFill=1;endSize=6;" edge="1" parent="1">
          <mxGeometry relative="1" as="geometry">
            <mxPoint x="314.5" y="10" as="sourcePoint" />
            <mxPoint x="314.5" y="550" as="targetPoint" />
          </mxGeometry>
        </mxCell>
        <mxCell id="qpBcVbU79Aa1EWPwrXT2-32" style="edgeStyle=orthogonalEdgeStyle;rounded=0;sketch=0;orthogonalLoop=1;jettySize=auto;html=1;fontSize=24;startArrow=none;startFill=0;endArrow=classic;endFill=1;endSize=6;" edge="1" parent="1">
          <mxGeometry relative="1" as="geometry">
            <mxPoint x="54.5" y="10" as="sourcePoint" />
            <mxPoint x="54.5" y="550" as="targetPoint" />
          </mxGeometry>
        </mxCell>
        <mxCell id="qpBcVbU79Aa1EWPwrXT2-36" style="edgeStyle=orthogonalEdgeStyle;rounded=0;sketch=0;orthogonalLoop=1;jettySize=auto;html=1;fontSize=24;startArrow=none;startFill=0;endArrow=none;endFill=0;endSize=6;" edge="1" parent="1" source="qpBcVbU79Aa1EWPwrXT2-3">
          <mxGeometry relative="1" as="geometry">
            <mxPoint x="565" y="10" as="targetPoint" />
          </mxGeometry>
        </mxCell>
        <mxCell id="qpBcVbU79Aa1EWPwrXT2-37" style="edgeStyle=orthogonalEdgeStyle;rounded=0;sketch=0;orthogonalLoop=1;jettySize=auto;html=1;fontSize=24;startArrow=none;startFill=0;endArrow=none;endFill=0;endSize=6;" edge="1" parent="1" source="qpBcVbU79Aa1EWPwrXT2-3" target="qpBcVbU79Aa1EWPwrXT2-4">
          <mxGeometry relative="1" as="geometry">
            <mxPoint x="565" y="420" as="targetPoint" />
          </mxGeometry>
        </mxCell>
        <mxCell id="qpBcVbU79Aa1EWPwrXT2-3" value="" style="whiteSpace=wrap;html=1;aspect=fixed;" vertex="1" parent="1">
          <mxGeometry x="540" y="190" width="50" height="50" as="geometry" />
        </mxCell>
      </root>
    </mxGraphModel>
  </diagram>
</mxfile>
